<svg width="210" height="64" viewBox="0 0 210 64" fill="none" xmlns="http://www.w3.org/2000/svg">
<g filter="url(#filter0_d)">
<rect x="4" width="202" height="56" rx="25" fill="#E6E6E6"/>
<rect x="5" y="1" width="200" height="54" rx="24" stroke="black" stroke-width="2"/>
</g>
<path d="M92.2559 29.2959C90.8086 28.8799 89.7539 28.3701 89.0918 27.7666C88.4355 27.1572 88.1074 26.4072 88.1074 25.5166C88.1074 24.5088 88.5088 23.6768 89.3115 23.0205C90.1201 22.3584 91.1689 22.0273 92.458 22.0273C93.3369 22.0273 94.1191 22.1973 94.8047 22.5371C95.4961 22.877 96.0293 23.3457 96.4043 23.9434C96.7852 24.541 96.9756 25.1943 96.9756 25.9033H95.2793C95.2793 25.1299 95.0332 24.5234 94.541 24.084C94.0488 23.6387 93.3545 23.416 92.458 23.416C91.626 23.416 90.9756 23.6006 90.5068 23.9697C90.0439 24.333 89.8125 24.8398 89.8125 25.4902C89.8125 26.0117 90.0322 26.4541 90.4717 26.8174C90.917 27.1748 91.6699 27.5029 92.7305 27.8018C93.7969 28.1006 94.6289 28.4316 95.2266 28.7949C95.8301 29.1523 96.2754 29.5713 96.5625 30.0518C96.8555 30.5322 97.002 31.0977 97.002 31.748C97.002 32.7852 96.5977 33.6172 95.7891 34.2441C94.9805 34.8652 93.8994 35.1758 92.5459 35.1758C91.667 35.1758 90.8467 35.0088 90.085 34.6748C89.3232 34.335 88.7344 33.8721 88.3184 33.2861C87.9082 32.7002 87.7031 32.0352 87.7031 31.291H89.3994C89.3994 32.0645 89.6836 32.6768 90.252 33.1279C90.8262 33.5732 91.5908 33.7959 92.5459 33.7959C93.4365 33.7959 94.1191 33.6143 94.5938 33.251C95.0684 32.8877 95.3057 32.3926 95.3057 31.7656C95.3057 31.1387 95.0859 30.6553 94.6465 30.3154C94.207 29.9697 93.4102 29.6299 92.2559 29.2959ZM104.789 35C104.695 34.8125 104.619 34.4785 104.561 33.998C103.805 34.7832 102.902 35.1758 101.854 35.1758C100.916 35.1758 100.146 34.9121 99.542 34.3848C98.9443 33.8516 98.6455 33.1777 98.6455 32.3633C98.6455 31.373 99.0205 30.6055 99.7705 30.0605C100.526 29.5098 101.587 29.2344 102.952 29.2344H104.534V28.4873C104.534 27.9189 104.364 27.4678 104.024 27.1338C103.685 26.7939 103.184 26.624 102.521 26.624C101.941 26.624 101.455 26.7705 101.062 27.0635C100.67 27.3564 100.474 27.7109 100.474 28.127H98.8389C98.8389 27.6523 99.0059 27.1953 99.3398 26.7559C99.6797 26.3105 100.137 25.959 100.711 25.7012C101.291 25.4434 101.927 25.3145 102.618 25.3145C103.714 25.3145 104.572 25.5898 105.193 26.1406C105.814 26.6855 106.137 27.4385 106.16 28.3994V32.7764C106.16 33.6494 106.271 34.3438 106.494 34.8594V35H104.789ZM102.091 33.7607C102.601 33.7607 103.084 33.6289 103.541 33.3652C103.998 33.1016 104.329 32.7588 104.534 32.3369V30.3857H103.26C101.268 30.3857 100.271 30.9688 100.271 32.1348C100.271 32.6445 100.441 33.043 100.781 33.3301C101.121 33.6172 101.558 33.7607 102.091 33.7607ZM110.476 35H108.85V21.5H110.476V35ZM114.853 35H113.227V25.4902H114.853V35ZM113.095 22.9678C113.095 22.7041 113.174 22.4814 113.332 22.2998C113.496 22.1182 113.736 22.0273 114.053 22.0273C114.369 22.0273 114.609 22.1182 114.773 22.2998C114.938 22.4814 115.02 22.7041 115.02 22.9678C115.02 23.2314 114.938 23.4512 114.773 23.627C114.609 23.8027 114.369 23.8906 114.053 23.8906C113.736 23.8906 113.496 23.8027 113.332 23.627C113.174 23.4512 113.095 23.2314 113.095 22.9678ZM122.06 26.9492C121.813 26.9082 121.547 26.8877 121.26 26.8877C120.193 26.8877 119.47 27.3418 119.089 28.25V35H117.463V25.4902H119.045L119.071 26.5889C119.604 25.7393 120.36 25.3145 121.339 25.3145C121.655 25.3145 121.896 25.3555 122.06 25.4375V26.9492Z" fill="black"/>
<defs>
<filter id="filter0_d" x="0" y="0" width="210" height="64" filterUnits="userSpaceOnUse" color-interpolation-filters="sRGB">
<feFlood flood-opacity="0" result="BackgroundImageFix"/>
<feColorMatrix in="SourceAlpha" type="matrix" values="0 0 0 0 0 0 0 0 0 0 0 0 0 0 0 0 0 0 127 0" result="hardAlpha"/>
<feOffset dy="4"/>
<feGaussianBlur stdDeviation="2"/>
<feComposite in2="hardAlpha" operator="out"/>
<feColorMatrix type="matrix" values="0 0 0 0 0 0 0 0 0 0 0 0 0 0 0 0 0 0 0.25 0"/>
<feBlend mode="normal" in2="BackgroundImageFix" result="effect1_dropShadow"/>
<feBlend mode="normal" in="SourceGraphic" in2="effect1_dropShadow" result="shape"/>
</filter>
</defs>
</svg>
