<svg width="210" height="64" viewBox="0 0 210 64" fill="none" xmlns="http://www.w3.org/2000/svg">
<g filter="url(#filter0_d)">
<rect x="4" width="202" height="56" rx="25" fill="#E6E6E6"/>
<rect x="5" y="1" width="200" height="54" rx="24" stroke="black" stroke-width="2"/>
</g>
<path d="M86.2959 34H84.6084V21.2031H86.2959V34ZM90.6729 24.4902L90.7256 25.6855C91.4521 24.7715 92.4014 24.3145 93.5732 24.3145C95.583 24.3145 96.5967 25.4482 96.6143 27.7158V34H94.9883V27.707C94.9824 27.0215 94.8242 26.5146 94.5137 26.1865C94.209 25.8584 93.7314 25.6943 93.0811 25.6943C92.5537 25.6943 92.0908 25.835 91.6924 26.1162C91.2939 26.3975 90.9834 26.7666 90.7607 27.2236V34H89.1348V24.4902H90.6729ZM100.833 34H99.207V24.4902H100.833V34ZM99.0752 21.9678C99.0752 21.7041 99.1543 21.4814 99.3125 21.2998C99.4766 21.1182 99.7168 21.0273 100.033 21.0273C100.35 21.0273 100.59 21.1182 100.754 21.2998C100.918 21.4814 101 21.7041 101 21.9678C101 22.2314 100.918 22.4512 100.754 22.627C100.59 22.8027 100.35 22.8906 100.033 22.8906C99.7168 22.8906 99.4766 22.8027 99.3125 22.627C99.1543 22.4512 99.0752 22.2314 99.0752 21.9678ZM107.258 32.8486C107.838 32.8486 108.345 32.6729 108.778 32.3213C109.212 31.9697 109.452 31.5303 109.499 31.0029H111.037C111.008 31.5479 110.82 32.0664 110.475 32.5586C110.129 33.0508 109.666 33.4434 109.086 33.7363C108.512 34.0293 107.902 34.1758 107.258 34.1758C105.963 34.1758 104.932 33.7451 104.164 32.8838C103.402 32.0166 103.021 30.833 103.021 29.333V29.0605C103.021 28.1348 103.191 27.3115 103.531 26.5908C103.871 25.8701 104.357 25.3105 104.99 24.9121C105.629 24.5137 106.382 24.3145 107.249 24.3145C108.315 24.3145 109.2 24.6338 109.903 25.2725C110.612 25.9111 110.99 26.7402 111.037 27.7598H109.499C109.452 27.1445 109.218 26.6406 108.796 26.248C108.38 25.8496 107.864 25.6504 107.249 25.6504C106.423 25.6504 105.781 25.9492 105.324 26.5469C104.873 27.1387 104.647 27.9971 104.647 29.1221V29.4297C104.647 30.5254 104.873 31.3691 105.324 31.9609C105.775 32.5527 106.42 32.8486 107.258 32.8486ZM114.632 34H113.006V24.4902H114.632V34ZM112.874 21.9678C112.874 21.7041 112.953 21.4814 113.111 21.2998C113.275 21.1182 113.516 21.0273 113.832 21.0273C114.148 21.0273 114.389 21.1182 114.553 21.2998C114.717 21.4814 114.799 21.7041 114.799 21.9678C114.799 22.2314 114.717 22.4512 114.553 22.627C114.389 22.8027 114.148 22.8906 113.832 22.8906C113.516 22.8906 113.275 22.8027 113.111 22.627C112.953 22.4512 112.874 22.2314 112.874 21.9678ZM116.812 29.1572C116.812 28.2256 116.993 27.3877 117.356 26.6436C117.726 25.8994 118.235 25.3252 118.886 24.9209C119.542 24.5166 120.289 24.3145 121.127 24.3145C122.422 24.3145 123.468 24.7627 124.265 25.6592C125.067 26.5557 125.469 27.748 125.469 29.2363V29.3506C125.469 30.2764 125.29 31.1084 124.933 31.8467C124.581 32.5791 124.074 33.1504 123.412 33.5605C122.756 33.9707 122 34.1758 121.145 34.1758C119.855 34.1758 118.81 33.7275 118.007 32.8311C117.21 31.9346 116.812 30.748 116.812 29.2715V29.1572ZM118.446 29.3506C118.446 30.4053 118.689 31.252 119.176 31.8906C119.668 32.5293 120.324 32.8486 121.145 32.8486C121.971 32.8486 122.627 32.5264 123.113 31.8818C123.6 31.2314 123.843 30.3232 123.843 29.1572C123.843 28.1143 123.594 27.2705 123.096 26.626C122.604 25.9756 121.947 25.6504 121.127 25.6504C120.324 25.6504 119.677 25.9697 119.185 26.6084C118.692 27.2471 118.446 28.1611 118.446 29.3506Z" fill="black"/>
<defs>
<filter id="filter0_d" x="0" y="0" width="210" height="64" filterUnits="userSpaceOnUse" color-interpolation-filters="sRGB">
<feFlood flood-opacity="0" result="BackgroundImageFix"/>
<feColorMatrix in="SourceAlpha" type="matrix" values="0 0 0 0 0 0 0 0 0 0 0 0 0 0 0 0 0 0 127 0" result="hardAlpha"/>
<feOffset dy="4"/>
<feGaussianBlur stdDeviation="2"/>
<feComposite in2="hardAlpha" operator="out"/>
<feColorMatrix type="matrix" values="0 0 0 0 0 0 0 0 0 0 0 0 0 0 0 0 0 0 0.25 0"/>
<feBlend mode="normal" in2="BackgroundImageFix" result="effect1_dropShadow"/>
<feBlend mode="normal" in="SourceGraphic" in2="effect1_dropShadow" result="shape"/>
</filter>
</defs>
</svg>
