<svg width="210" height="64" viewBox="0 0 210 64" fill="none" xmlns="http://www.w3.org/2000/svg">
<g filter="url(#filter0_d)">
<g filter="url(#filter1_d)">
<rect x="4" width="202" height="56" rx="25" fill="#E6E6E6"/>
<rect x="5" y="1" width="200" height="54" rx="24" stroke="black" stroke-width="2"/>
</g>
<path d="M81.8984 29.9395C81.7402 31.293 81.2393 32.3389 80.3955 33.0771C79.5576 33.8096 78.4414 34.1758 77.0469 34.1758C75.5352 34.1758 74.3223 33.6338 73.4082 32.5498C72.5 31.4658 72.0459 30.0156 72.0459 28.1992V26.9688C72.0459 25.7793 72.2568 24.7334 72.6787 23.8311C73.1064 22.9287 73.71 22.2373 74.4893 21.7568C75.2686 21.2705 76.1709 21.0273 77.1963 21.0273C78.5557 21.0273 79.6455 21.4082 80.4658 22.1699C81.2861 22.9258 81.7637 23.9746 81.8984 25.3164H80.2021C80.0557 24.2969 79.7363 23.5586 79.2441 23.1016C78.7578 22.6445 78.0752 22.416 77.1963 22.416C76.1182 22.416 75.2715 22.8145 74.6562 23.6113C74.0469 24.4082 73.7422 25.542 73.7422 27.0127V28.252C73.7422 29.6406 74.0322 30.7451 74.6123 31.5654C75.1924 32.3857 76.0039 32.7959 77.0469 32.7959C77.9844 32.7959 78.7021 32.585 79.2002 32.1631C79.7041 31.7354 80.0381 30.9941 80.2021 29.9395H81.8984ZM88.5518 25.9492C88.3057 25.9082 88.0391 25.8877 87.752 25.8877C86.6855 25.8877 85.9619 26.3418 85.5811 27.25V34H83.9551V24.4902H85.5371L85.5635 25.5889C86.0967 24.7393 86.8525 24.3145 87.8311 24.3145C88.1475 24.3145 88.3877 24.3555 88.5518 24.4375V25.9492ZM93.8252 34.1758C92.5361 34.1758 91.4873 33.7539 90.6787 32.9102C89.8701 32.0605 89.4658 30.9268 89.4658 29.5088V29.21C89.4658 28.2666 89.6445 27.4258 90.002 26.6875C90.3652 25.9434 90.8691 25.3633 91.5137 24.9473C92.1641 24.5254 92.8672 24.3145 93.623 24.3145C94.8594 24.3145 95.8203 24.7217 96.5059 25.5361C97.1914 26.3506 97.5342 27.5166 97.5342 29.0342V29.7109H91.0918C91.1152 30.6484 91.3877 31.4072 91.9092 31.9873C92.4365 32.5615 93.1045 32.8486 93.9131 32.8486C94.4873 32.8486 94.9736 32.7314 95.3721 32.4971C95.7705 32.2627 96.1191 31.9521 96.418 31.5654L97.4111 32.3389C96.6143 33.5635 95.4189 34.1758 93.8252 34.1758ZM93.623 25.6504C92.9668 25.6504 92.416 25.8906 91.9707 26.3711C91.5254 26.8457 91.25 27.5137 91.1445 28.375H95.9082V28.252C95.8613 27.4258 95.6387 26.7871 95.2402 26.3359C94.8418 25.8789 94.3027 25.6504 93.623 25.6504ZM94.4141 20.5H96.3828L94.0273 23.084H92.7178L94.4141 20.5ZM99.0283 29.166C99.0283 27.707 99.374 26.5352 100.065 25.6504C100.757 24.7598 101.662 24.3145 102.781 24.3145C103.895 24.3145 104.776 24.6953 105.427 25.457V20.5H107.053V34H105.559L105.479 32.9805C104.829 33.7773 103.924 34.1758 102.764 34.1758C101.662 34.1758 100.763 33.7246 100.065 32.8223C99.374 31.9199 99.0283 30.7422 99.0283 29.2891V29.166ZM100.654 29.3506C100.654 30.4287 100.877 31.2725 101.322 31.8818C101.768 32.4912 102.383 32.7959 103.168 32.7959C104.199 32.7959 104.952 32.333 105.427 31.4072V27.0391C104.94 26.1426 104.193 25.6943 103.186 25.6943C102.389 25.6943 101.768 26.002 101.322 26.6172C100.877 27.2324 100.654 28.1436 100.654 29.3506ZM111.351 34H109.725V24.4902H111.351V34ZM109.593 21.9678C109.593 21.7041 109.672 21.4814 109.83 21.2998C109.994 21.1182 110.234 21.0273 110.551 21.0273C110.867 21.0273 111.107 21.1182 111.271 21.2998C111.436 21.4814 111.518 21.7041 111.518 21.9678C111.518 22.2314 111.436 22.4512 111.271 22.627C111.107 22.8027 110.867 22.8906 110.551 22.8906C110.234 22.8906 109.994 22.8027 109.83 22.627C109.672 22.4512 109.593 22.2314 109.593 21.9678ZM116.167 22.1875V24.4902H117.942V25.7471H116.167V31.6445C116.167 32.0254 116.246 32.3125 116.404 32.5059C116.562 32.6934 116.832 32.7871 117.213 32.7871C117.4 32.7871 117.658 32.752 117.986 32.6816V34C117.559 34.1172 117.143 34.1758 116.738 34.1758C116.012 34.1758 115.464 33.9561 115.095 33.5166C114.726 33.0771 114.541 32.4531 114.541 31.6445V25.7471H112.81V24.4902H114.541V22.1875H116.167ZM119.243 29.1572C119.243 28.2256 119.425 27.3877 119.788 26.6436C120.157 25.8994 120.667 25.3252 121.317 24.9209C121.974 24.5166 122.721 24.3145 123.559 24.3145C124.854 24.3145 125.899 24.7627 126.696 25.6592C127.499 26.5557 127.9 27.748 127.9 29.2363V29.3506C127.9 30.2764 127.722 31.1084 127.364 31.8467C127.013 32.5791 126.506 33.1504 125.844 33.5605C125.188 33.9707 124.432 34.1758 123.576 34.1758C122.287 34.1758 121.241 33.7275 120.438 32.8311C119.642 31.9346 119.243 30.748 119.243 29.2715V29.1572ZM120.878 29.3506C120.878 30.4053 121.121 31.252 121.607 31.8906C122.1 32.5293 122.756 32.8486 123.576 32.8486C124.402 32.8486 125.059 32.5264 125.545 31.8818C126.031 31.2314 126.274 30.3232 126.274 29.1572C126.274 28.1143 126.025 27.2705 125.527 26.626C125.035 25.9756 124.379 25.6504 123.559 25.6504C122.756 25.6504 122.108 25.9697 121.616 26.6084C121.124 27.2471 120.878 28.1611 120.878 29.3506ZM135.477 31.4775C135.477 31.0381 135.31 30.6982 134.976 30.458C134.647 30.2119 134.07 30.001 133.244 29.8252C132.424 29.6494 131.771 29.4385 131.284 29.1924C130.804 28.9463 130.446 28.6533 130.212 28.3135C129.983 27.9736 129.869 27.5693 129.869 27.1006C129.869 26.3213 130.197 25.6621 130.854 25.123C131.516 24.584 132.359 24.3145 133.385 24.3145C134.463 24.3145 135.336 24.5928 136.004 25.1494C136.678 25.7061 137.015 26.418 137.015 27.2852H135.38C135.38 26.8398 135.189 26.4561 134.809 26.1338C134.434 25.8115 133.959 25.6504 133.385 25.6504C132.793 25.6504 132.33 25.7793 131.996 26.0371C131.662 26.2949 131.495 26.6318 131.495 27.0479C131.495 27.4404 131.65 27.7363 131.961 27.9355C132.271 28.1348 132.831 28.3252 133.64 28.5068C134.454 28.6885 135.113 28.9053 135.617 29.1572C136.121 29.4092 136.493 29.7139 136.733 30.0713C136.979 30.4229 137.103 30.8535 137.103 31.3633C137.103 32.2129 136.763 32.8955 136.083 33.4111C135.403 33.9209 134.521 34.1758 133.438 34.1758C132.676 34.1758 132.002 34.041 131.416 33.7715C130.83 33.502 130.37 33.127 130.036 32.6465C129.708 32.1602 129.544 31.6357 129.544 31.0732H131.17C131.199 31.6182 131.416 32.0518 131.82 32.374C132.23 32.6904 132.77 32.8486 133.438 32.8486C134.053 32.8486 134.545 32.7256 134.914 32.4795C135.289 32.2275 135.477 31.8936 135.477 31.4775Z" fill="black"/>
</g>
<defs>
<filter id="filter0_d" x="0" y="0" width="210" height="64" filterUnits="userSpaceOnUse" color-interpolation-filters="sRGB">
<feFlood flood-opacity="0" result="BackgroundImageFix"/>
<feColorMatrix in="SourceAlpha" type="matrix" values="0 0 0 0 0 0 0 0 0 0 0 0 0 0 0 0 0 0 127 0" result="hardAlpha"/>
<feOffset dy="4"/>
<feGaussianBlur stdDeviation="2"/>
<feComposite in2="hardAlpha" operator="out"/>
<feColorMatrix type="matrix" values="0 0 0 0 0 0 0 0 0 0 0 0 0 0 0 0 0 0 0.25 0"/>
<feBlend mode="normal" in2="BackgroundImageFix" result="effect1_dropShadow"/>
<feBlend mode="normal" in="SourceGraphic" in2="effect1_dropShadow" result="shape"/>
</filter>
<filter id="filter1_d" x="0" y="0" width="210" height="64" filterUnits="userSpaceOnUse" color-interpolation-filters="sRGB">
<feFlood flood-opacity="0" result="BackgroundImageFix"/>
<feColorMatrix in="SourceAlpha" type="matrix" values="0 0 0 0 0 0 0 0 0 0 0 0 0 0 0 0 0 0 127 0" result="hardAlpha"/>
<feOffset dy="4"/>
<feGaussianBlur stdDeviation="2"/>
<feComposite in2="hardAlpha" operator="out"/>
<feColorMatrix type="matrix" values="0 0 0 0 0 0 0 0 0 0 0 0 0 0 0 0 0 0 0.25 0"/>
<feBlend mode="normal" in2="BackgroundImageFix" result="effect1_dropShadow"/>
<feBlend mode="normal" in="SourceGraphic" in2="effect1_dropShadow" result="shape"/>
</filter>
</defs>
</svg>
